<?xml version="1.0" standalone="no"?><!DOCTYPE svg PUBLIC "-//W3C//DTD SVG 1.1//EN" "http://www.w3.org/Graphics/SVG/1.1/DTD/svg11.dtd"><svg t="1722252289417" class="icon" viewBox="0 0 1024 1024" version="1.1" xmlns="http://www.w3.org/2000/svg" p-id="6213" xmlns:xlink="http://www.w3.org/1999/xlink" width="200" height="200"><path d="M597.333333 142.222222C597.333333 95.288889 558.933333 56.888889 512 56.888889s-85.333333 38.4-85.333333 85.333333S465.066667 227.555556 512 227.555556s85.333333-38.4 85.333333-85.333334z m0 739.555556c0-46.933333-38.4-85.333333-85.333333-85.333334s-85.333333 38.4-85.333333 85.333334S465.066667 967.111111 512 967.111111s85.333333-38.4 85.333333-85.333333z m0-369.777778c0-46.933333-38.4-85.333333-85.333333-85.333333S426.666667 465.066667 426.666667 512s38.4 85.333333 85.333333 85.333333 85.333333-38.4 85.333333-85.333333z" fill="#707070" p-id="6214"></path></svg>