<svg t="1706169736499" class="icon" viewBox="0 0 1024 1024" version="1.1" xmlns="http://www.w3.org/2000/svg" p-id="10060" width="200" height="200"><path d="M512 832a64 64 0 0 1 64 64v64a64 64 0 1 1-128 0v-64a64 64 0 0 1 64-64z m0-640a64 64 0 0 1-64-64V64a64 64 0 1 1 128 0v64a64 64 0 0 1-64 64z m448 256a64 64 0 1 1 0 128h-64a64 64 0 1 1 0-128h64zM192 512a64 64 0 0 1-64 64H64a64 64 0 1 1 0-128h64a64 64 0 0 1 64 64z m636.768 226.272l45.248 45.248a64 64 0 1 1-90.496 90.496l-45.248-45.248a64 64 0 1 1 90.496-90.496zM195.232 285.728L149.984 240.48a64 64 0 1 1 90.496-90.496l45.248 45.248a64 64 0 1 1-90.496 90.496z m633.536 0a64 64 0 1 1-90.496-90.496l45.248-45.248a64 64 0 1 1 90.496 90.496l-45.248 45.248zM195.232 738.272a64 64 0 1 1 90.496 90.496l-45.248 45.248a64 64 0 1 1-90.496-90.496l45.248-45.248zM512 256a256 256 0 1 0 0 512 256 256 0 0 0 0-512z m0 416a160 160 0 1 1 0.032-320.032A160 160 0 0 1 512 672z" p-id="10061" fill="#515151"></path></svg>
