<svg t="1709032276959" class="icon" viewBox="0 0 1160 1024" version="1.1" xmlns="http://www.w3.org/2000/svg" p-id="4243" width="200" height="200"><path d="M667.374933 558.762667a271.428267 271.428267 0 0 0-62.532266 74.274133 361.198933 361.198933 0 0 0-112.64-17.8176 358.058667 358.058667 0 0 0-255.317334 106.018133 359.901867 359.901867 0 0 0-105.608533 246.442667 9.693867 9.693867 0 0 1-9.6256 9.352533H49.3568a9.6256 9.6256 0 0 1-9.6256-9.898666 450.56 450.56 0 0 1 35.498667-166.570667 450.423467 450.423467 0 0 1 96.938666-144.110933A449.399467 449.399467 0 0 1 316.074667 559.240533c0.477867-0.273067 0.955733-0.341333 1.365333-0.6144A299.008 299.008 0 0 1 193.809067 316.074667 298.666667 298.666667 0 0 1 492.202667 16.930133a298.8032 298.8032 0 0 1 298.530133 299.144534A299.2128 299.2128 0 0 1 666.965333 558.626133l0.341334 0.136534zM492.270933 523.605333c55.296 0 107.178667-21.572267 146.432-60.757333a206.506667 206.506667 0 0 0 60.6208-146.705067c0-55.296-21.572267-107.451733-60.6208-146.6368a205.550933 205.550933 0 0 0-146.432-60.757333c-55.364267 0-107.383467 21.504-146.432 60.757333a206.506667 206.506667 0 0 0-60.689066 146.6368c0 55.364267 21.640533 107.451733 60.689066 146.6368 39.185067 39.253333 91.204267 60.757333 146.432 60.757334z" fill="#515151" p-id="4244"></path><path d="M1108.445867 776.533333a47.991467 47.991467 0 0 1 15.018666 54.203734l-0.682666 1.570133c-10.24 26.965333-25.326933 51.8144-45.056 73.796267l-0.682667 0.750933a50.176 50.176 0 0 1-53.316267 13.994667l-22.869333-7.645867a205.2096 205.2096 0 0 1-23.688533 12.970667l-4.096 20.821333a49.152 49.152 0 0 1-40.004267 38.912l-1.4336 0.2048a262.621867 262.621867 0 0 1-88.4736 0l-1.2288-0.2048a49.152 49.152 0 0 1-40.1408-38.912l-4.096-21.026133a205.2096 205.2096 0 0 1-23.3472-12.9024l-23.278933 7.850666a50.176 50.176 0 0 1-52.974934-13.789866L697.002667 906.0352a235.656533 235.656533 0 0 1-45.056-74.1376l-0.341334-0.887467a48.264533 48.264533 0 0 1 14.9504-54.613333l17.476267-14.1312a191.488 191.488 0 0 1 0-22.664533l-17.6128-14.199467a48.196267 48.196267 0 0 1-15.018667-54.272l0.682667-1.570133c10.24-26.965333 25.326933-51.8144 45.056-73.864534l0.682667-0.682666A50.176 50.176 0 0 1 751.2064 580.949333l23.210667 7.7824c7.441067-4.778667 15.223467-9.079467 23.210666-12.834133l4.164267-21.026133a49.152 49.152 0 0 1 40.072533-38.912l1.4336-0.273067a264.6016 264.6016 0 0 1 88.4736 0l1.2288 0.273067a49.152 49.152 0 0 1 40.1408 38.843733l4.096 20.821333c8.123733 3.822933 16.042667 8.192 23.620267 13.038934l23.005867-7.7824a50.176 50.176 0 0 1 52.974933 13.858133l1.024 1.092267c19.592533 21.845333 34.747733 46.6944 45.056 74.1376l0.341333 0.8192a48.264533 48.264533 0 0 1-14.9504 54.6816l-17.066666 13.789866a188.416 188.416 0 0 1 0 23.415467l17.2032 13.858133z m-90.248534 14.813867l3.413334-19.797333a121.719467 121.719467 0 0 0 0-41.233067l-3.413334-19.729067 15.5648-12.561066 20.138667-16.315734a166.024533 166.024533 0 0 0-20.002133-32.085333l-45.056 15.086933-14.404267-11.195733a138.581333 138.581333 0 0 0-38.7072-21.162667l-18.295467-6.5536-3.754666-19.114666-4.9152-25.258667a197.358933 197.358933 0 0 0-42.5984 0l-8.738134 44.509867-18.2272 6.5536a138.308267 138.308267 0 0 0-38.365866 21.0944l-14.472534 11.264-17.339733-5.870934-27.989333-9.4208a167.253333 167.253333 0 0 0-20.002134 32.085334l36.181334 29.218133-3.4816 19.797333a118.3744 118.3744 0 0 0 0 40.482134l3.413333 19.797333-15.633067 12.629333-20.48 16.5888c5.461333 11.400533 12.0832 22.1184 20.002134 32.085334l45.329066-15.223467 14.472534 11.264c11.605333 9.0112 24.507733 16.110933 38.229333 21.026133l18.432 6.5536 3.6864 19.114667 4.983467 25.463467a194.901333 194.901333 0 0 0 42.5984 0l8.669866-44.373334 18.295467-6.5536c14.1312-5.051733 27.101867-12.0832 38.638933-21.162666l14.472534-11.264 17.408 5.870933 27.648 9.284267a167.253333 167.253333 0 0 0 19.933866-32.085334l-35.6352-28.808533z" fill="#515151" p-id="4245"></path><path d="M887.466667 750.933333m-87.790934 0a87.790933 87.790933 0 1 0 175.581867 0 87.790933 87.790933 0 1 0-175.581867 0Z" fill="#515151" p-id="4246"></path></svg>
