<svg xmlns="http://www.w3.org/2000/svg" xmlns:xlink="http://www.w3.org/1999/xlink" version="1.0" x="0" y="0" width="2400" height="2400" viewBox="85.34 40.34 169.32 169.32" preserveAspectRatio="xMidYMid meet" color-interpolation-filters="sRGB"><g><defs><linearGradient id="92" x1="0%" y1="0%" x2="100%" y2="0%"><stop offset="0%" stop-color="#fa71cd"></stop> <stop offset="100%" stop-color="#9b59b6"></stop></linearGradient><linearGradient id="93" x1="0%" y1="0%" x2="100%" y2="0%"><stop offset="0%" stop-color="#f9d423"></stop> <stop offset="100%" stop-color="#f83600"></stop></linearGradient><linearGradient id="94" x1="0%" y1="0%" x2="100%" y2="0%"><stop offset="0%" stop-color="#0064d2"></stop> <stop offset="100%" stop-color="#1cb0f6"></stop></linearGradient><linearGradient id="95" x1="0%" y1="0%" x2="100%" y2="0%"><stop offset="0%" stop-color="#f00978"></stop> <stop offset="100%" stop-color="#3f51b1"></stop></linearGradient><linearGradient id="96" x1="0%" y1="0%" x2="100%" y2="0%"><stop offset="0%" stop-color="#7873f5"></stop> <stop offset="100%" stop-color="#ec77ab"></stop></linearGradient><linearGradient id="97" x1="0%" y1="0%" x2="100%" y2="0%"><stop offset="0%" stop-color="#f9d423"></stop> <stop offset="100%" stop-color="#e14fad"></stop></linearGradient><linearGradient id="98" x1="0%" y1="0%" x2="100%" y2="0%"><stop offset="0%" stop-color="#009efd"></stop> <stop offset="100%" stop-color="#2af598"></stop></linearGradient><linearGradient id="99" x1="0%" y1="0%" x2="100%" y2="0%"><stop offset="0%" stop-color="#ffcc00"></stop> <stop offset="100%" stop-color="#00b140"></stop></linearGradient><linearGradient id="100" x1="0%" y1="0%" x2="100%" y2="0%"><stop offset="0%" stop-color="#d51007"></stop> <stop offset="100%" stop-color="#ff8177"></stop></linearGradient><linearGradient id="102" x1="0%" y1="0%" x2="100%" y2="0%"><stop offset="0%" stop-color="#a2b6df"></stop> <stop offset="100%" stop-color="#0c3483"></stop></linearGradient><linearGradient id="103" x1="0%" y1="0%" x2="100%" y2="0%"><stop offset="0%" stop-color="#7ac5d8"></stop> <stop offset="100%" stop-color="#eea2a2"></stop></linearGradient><linearGradient id="104" x1="0%" y1="0%" x2="100%" y2="0%"><stop offset="0%" stop-color="#00ecbc"></stop> <stop offset="100%" stop-color="#007adf"></stop></linearGradient><linearGradient id="105" x1="0%" y1="0%" x2="100%" y2="0%"><stop offset="0%" stop-color="#b88746"></stop> <stop offset="100%" stop-color="#fdf5a6"></stop></linearGradient></defs><g fill="#e73768" class="j-b-g-c iconbgsvg" transform="translate(93,48)" mask="url(#fcfbc377-4732-42db-939b-1d7c5e1e65e3)"><g transform="translate(0,0)"><g mask="url(#02333691-a00b-491f-aa08-fbd09444c583)"><rect fill="#e73768" fill-opacity="0" stroke-width="2" x="0" y="0" width="154" height="154" class="image-rect"></rect> <svg filter="url(#colors6745847721)" x="0" y="0" width="154" height="154" filtersec="colorsf1317805078" class="image-svg-container primary" style="overflow: visible;"><svg xmlns="http://www.w3.org/2000/svg" viewBox="0 0 100 100" style="overflow: visible;"><g transform="scale(1, 1) skewX(0)"><path d="M80 0c11.046 0 20 8.954 20 20v60c0 11.046-8.954 20-20 20H20C8.954 100 0 91.046 0 80V20C0 8.954 8.954 0 20 0h60zm0 3H20C10.72 3 3.175 10.437 3.003 19.677L3 20v60c0 9.28 7.437 16.825 16.677 16.997L20 97h60c9.28 0 16.825-7.437 16.997-16.677L97 80V20c0-9.28-7.437-16.825-16.677-16.997L80 3z" fill="#333" fill-rule="nonzero"></path></g></svg></svg> <defs><filter id="colors6745847721"><feColorMatrix type="matrix" values="0 0 0 0 0.1796875  0 0 0 0 0.63671875  0 0 0 0 0.9140625  0 0 0 1 0" class="icon-feColorMatrix "></feColorMatrix></filter> <filter id="colorsf1317805078"><feColorMatrix type="matrix" values="0 0 0 0 0.99609375  0 0 0 0 0.99609375  0 0 0 0 0.99609375  0 0 0 1 0" class="icon-fecolormatrix"></feColorMatrix></filter> <filter id="colorsb4499925366"><feColorMatrix type="matrix" values="0 0 0 0 0  0 0 0 0 0  0 0 0 0 0  0 0 0 1 0" class="icon-fecolormatrix"></feColorMatrix></filter></defs></g><rect v-gra="id" width="166" height="166" transform="translate(-6, -6)" style="pointer-events:none;" fill="url(#BB7toIulLGXn-VvNwHYew)"></rect></g> <g hollow-target="textRect" transform="translate(24.16330337524414,33.55302047729492)"><g class="iconsvg-imagesvg" transform="translate(31.54241180419922,0)" mask="url(#7a50e65d-7593-4c5e-a034-68702985b35f)"><g> <svg filter="url(#colors8214487437)" x="0" y="0" width="46.79999999999999" height="33.095488971706175" filtersec="colorsf759286517" class="image-svg-svg primary" style="overflow: visible;"><svg xmlns="http://www.w3.org/2000/svg" viewBox="-0.6000000000000001 -1.025 61.2 44.45"><path d="M44.5 21.7h5.7c-.2 5-2.1 9.9-5.9 13.6M15.7 6.9L1.4 21.2l14.3 14.3c7.9 7.9 20.6 7.9 28.5 0m.1-.1l14.3-14.3L44.3 6.9C36.4-1 23.7-1 15.8 6.9m-.1 0c-3.8 3.8-5.7 8.7-5.9 13.6h5.7m24.7-9.6c-5.7-5.7-14.8-5.7-20.5 0s-5.7 14.8 0 20.5 14.8 5.7 20.5 0c5.7-5.7 5.7-14.9 0-20.5z" fill="none" stroke="#282828" stroke-width="2" stroke-miterlimit="10"></path></svg></svg> <defs><filter id="colors8214487437"><feColorMatrix type="matrix" values="0 0 0 0 0.1796875  0 0 0 0 0.63671875  0 0 0 0 0.9140625  0 0 0 1 0" class="icon-fecolormatrix"></feColorMatrix></filter> <filter id="colorsf759286517"><feColorMatrix type="matrix" values="0 0 0 0 0.99609375  0 0 0 0 0.99609375  0 0 0 0 0.99609375  0 0 0 1 0" class="icon-fecolormatrix"></feColorMatrix></filter> <filter id="colorsb6185921874"><feColorMatrix type="matrix" values="0 0 0 0 0  0 0 0 0 0  0 0 0 0 0  0 0 0 1 0" class="icon-fecolormatrix"></feColorMatrix></filter></defs></g><rect v-gra="id" width="54.58856964111328" height="42.11726951599121" transform="translate(-6, -6)" style="pointer-events:none;" fill="url(#BB7toIulLGXn-VvNwHYew)"></rect></g> <g transform="translate(0,41.11726951599121)"><g fill-rule="" class="tp-name iconsvg-namesvg" fill="url(#4cb75616-6b1b-49f3-b066-7dee0f96609b)"><g transform="scale(0.8199999999999998)"><g><path d="M21.6-30.78L5.58-30.78 5.58-16.74 20.61-16.74 20.61-14.85 5.58-14.85 5.58 2.02 3.6 2.02 3.6-32.71 21.6-32.71 21.6-30.78ZM30.9-32.71L32.92-32.71 32.92 2.02 30.9 2.02 30.9-32.71ZM68.73-15.34L68.73-15.34Q68.73-10.13 66.93-6.19 65.13-2.25 61.71-0.11 58.29 2.02 53.56 2.02L53.56 2.02 43.53 2.02 43.53-32.71 53.56-32.71Q58.29-32.71 61.71-30.58 65.13-28.44 66.93-24.5 68.73-20.56 68.73-15.34ZM66.7-15.34L66.7-15.34Q66.7-19.98 65.2-23.47 63.69-26.95 60.72-28.87 57.75-30.78 53.48-30.78L53.48-30.78 45.51-30.78 45.51 0.09 53.48 0.09Q57.7 0.09 60.7-1.84 63.69-3.78 65.2-7.25 66.7-10.71 66.7-15.34ZM96.44-30.78L79.92-30.78 79.92-17.23 95.4-17.23 95.4-15.3 79.92-15.3 79.92 0.09 96.44 0.09 96.44 2.02 77.94 2.02 77.94-32.71 96.44-32.71 96.44-30.78ZM118.65 2.48L118.65 2.48Q114.6 2.48 111.47 0.18 108.34-2.11 106.59-6.19 104.83-10.26 104.83-15.34L104.83-15.34Q104.83-20.43 106.59-24.5 108.34-28.57 111.5-30.89 114.64-33.21 118.65-33.21L118.65-33.21Q122.66-33.21 125.81-30.89 128.95-28.57 130.71-24.5 132.47-20.43 132.47-15.34L132.47-15.34Q132.47-10.26 130.71-6.19 128.95-2.11 125.83 0.18 122.7 2.48 118.65 2.48ZM118.65 0.58L118.65 0.58Q122.11 0.58 124.81-1.42 127.52-3.42 129-7.04 130.49-10.66 130.49-15.34L130.49-15.34Q130.49-20.02 129-23.65 127.52-27.27 124.81-29.27 122.11-31.27 118.65-31.27L118.65-31.27Q115.19-31.27 112.51-29.27 109.83-27.27 108.34-23.65 106.86-20.02 106.86-15.34L106.86-15.34Q106.86-10.66 108.34-7.04 109.83-3.42 112.51-1.42 115.19 0.58 118.65 0.58Z" transform="translate(-3.5999999046325684, 33.209999084472656)"></path></g> </g></g> </g></g></g><defs><filter id="9df6fa10-8817-44e8-914d-c8530949fb78"> <feColorMatrix type="matrix" values="0 0 0 0 0  0 0 0 0 0  0 0 0 0 0  0 0 0 1 0"></feColorMatrix> </filter><filter id="155aad83-b84f-4d9f-b715-8d5477baf297"> <feColorMatrix type="matrix" values="0 0 0 0 0.99609375  0 0 0 0 0.99609375  0 0 0 0 0.99609375  0 0 0 1 0"></feColorMatrix> </filter></defs><mask id="02333691-a00b-491f-aa08-fbd09444c583"><g fill="#e73768" class="j-b-g-c iconbgsvg"><g><g><rect fill="#e73768" fill-opacity="0" stroke-width="2" x="0" y="0" width="154" height="154" class="image-rect" stroke="#000"></rect> <svg filter="url(#155aad83-b84f-4d9f-b715-8d5477baf297)" x="0" y="0" width="154" height="154" filtersec="colorsf1317805078" class="image-svg-container primary" style="overflow: visible;"><svg xmlns="http://www.w3.org/2000/svg" viewBox="0 0 100 100" style="overflow: visible;"><g transform="scale(1, 1) skewX(0)"><path d="M80 0c11.046 0 20 8.954 20 20v60c0 11.046-8.954 20-20 20H20C8.954 100 0 91.046 0 80V20C0 8.954 8.954 0 20 0h60zm0 3H20C10.72 3 3.175 10.437 3.003 19.677L3 20v60c0 9.28 7.437 16.825 16.677 16.997L20 97h60c9.28 0 16.825-7.437 16.997-16.677L97 80V20c0-9.28-7.437-16.825-16.677-16.997L80 3z" fill="#333" fill-rule="nonzero"></path></g></svg></svg> <defs><filter id="colors6745847721"><feColorMatrix type="matrix" values="0 0 0 0 0.1796875  0 0 0 0 0.63671875  0 0 0 0 0.9140625  0 0 0 1 0" class="icon-fecolormatrix"></feColorMatrix></filter> <filter id="colorsf1317805078"><feColorMatrix type="matrix" values="0 0 0 0 0.99609375  0 0 0 0 0.99609375  0 0 0 0 0.99609375  0 0 0 1 0" class="icon-fecolormatrix"></feColorMatrix></filter> <filter id="colorsb4499925366"><feColorMatrix type="matrix" values="0 0 0 0 0  0 0 0 0 0  0 0 0 0 0  0 0 0 1 0" class="icon-fecolormatrix"></feColorMatrix></filter></defs></g></g> <g hollow-target="textRect" transform="translate(24.16330337524414, 33.55302047729492)" stroke="black" stroke-width="6" stroke-linejoin="round"><g class="iconsvg-imagesvg" transform="translate(31.54241180419922,0)"><g> <svg filter="url(#colors8214487437)" x="0" y="0" width="46.79999999999999" height="33.095488971706175" filtersec="colorsf759286517" class="image-svg-svg primary" style="overflow: visible;"><svg xmlns="http://www.w3.org/2000/svg" viewBox="-0.6000000000000001 -1.025 61.2 44.45" style="overflow: visible;"><path d="M44.5 21.7h5.7c-.2 5-2.1 9.9-5.9 13.6M15.7 6.9L1.4 21.2l14.3 14.3c7.9 7.9 20.6 7.9 28.5 0m.1-.1l14.3-14.3L44.3 6.9C36.4-1 23.7-1 15.8 6.9m-.1 0c-3.8 3.8-5.7 8.7-5.9 13.6h5.7m24.7-9.6c-5.7-5.7-14.8-5.7-20.5 0s-5.7 14.8 0 20.5 14.8 5.7 20.5 0c5.7-5.7 5.7-14.9 0-20.5z" fill="none" stroke="#000" stroke-width="2" stroke-miterlimit="10"></path></svg></svg> <defs><filter id="colors8214487437"><feColorMatrix type="matrix" values="0 0 0 0 0.1796875  0 0 0 0 0.63671875  0 0 0 0 0.9140625  0 0 0 1 0" class="icon-fecolormatrix"></feColorMatrix></filter> <filter id="colorsf759286517"><feColorMatrix type="matrix" values="0 0 0 0 0.99609375  0 0 0 0 0.99609375  0 0 0 0 0.99609375  0 0 0 1 0" class="icon-fecolormatrix"></feColorMatrix></filter> <filter id="colorsb6185921874"><feColorMatrix type="matrix" values="0 0 0 0 0  0 0 0 0 0  0 0 0 0 0  0 0 0 1 0" class="icon-fecolormatrix"></feColorMatrix></filter></defs></g></g> <g transform="translate(0,41.11726951599121)"><g fill-rule="" class="tp-name iconsvg-namesvg"><g transform="scale(0.8199999999999998)"><g><path d="M21.6-30.78L5.58-30.78 5.58-16.74 20.61-16.74 20.61-14.85 5.58-14.85 5.58 2.02 3.6 2.02 3.6-32.71 21.6-32.71 21.6-30.78ZM30.9-32.71L32.92-32.71 32.92 2.02 30.9 2.02 30.9-32.71ZM68.73-15.34L68.73-15.34Q68.73-10.13 66.93-6.19 65.13-2.25 61.71-0.11 58.29 2.02 53.56 2.02L53.56 2.02 43.53 2.02 43.53-32.71 53.56-32.71Q58.29-32.71 61.71-30.58 65.13-28.44 66.93-24.5 68.73-20.56 68.73-15.34ZM66.7-15.34L66.7-15.34Q66.7-19.98 65.2-23.47 63.69-26.95 60.72-28.87 57.75-30.78 53.48-30.78L53.48-30.78 45.51-30.78 45.51 0.09 53.48 0.09Q57.7 0.09 60.7-1.84 63.69-3.78 65.2-7.25 66.7-10.71 66.7-15.34ZM96.44-30.78L79.92-30.78 79.92-17.23 95.4-17.23 95.4-15.3 79.92-15.3 79.92 0.09 96.44 0.09 96.44 2.02 77.94 2.02 77.94-32.71 96.44-32.71 96.44-30.78ZM118.65 2.48L118.65 2.48Q114.6 2.48 111.47 0.18 108.34-2.11 106.59-6.19 104.83-10.26 104.83-15.34L104.83-15.34Q104.83-20.43 106.59-24.5 108.34-28.57 111.5-30.89 114.64-33.21 118.65-33.21L118.65-33.21Q122.66-33.21 125.81-30.89 128.95-28.57 130.71-24.5 132.47-20.43 132.47-15.34L132.47-15.34Q132.47-10.26 130.71-6.19 128.95-2.11 125.83 0.18 122.7 2.48 118.65 2.48ZM118.65 0.58L118.65 0.58Q122.11 0.58 124.81-1.42 127.52-3.42 129-7.04 130.49-10.66 130.49-15.34L130.49-15.34Q130.49-20.02 129-23.65 127.52-27.27 124.81-29.27 122.11-31.27 118.65-31.27L118.65-31.27Q115.19-31.27 112.51-29.27 109.83-27.27 108.34-23.65 106.86-20.02 106.86-15.34L106.86-15.34Q106.86-10.66 108.34-7.04 109.83-3.42 112.51-1.42 115.19 0.58 118.65 0.58Z" transform="translate(-3.5999999046325684, 33.209999084472656)"></path></g> </g></g> </g></g></g></mask><defs v-gra="od"><linearGradient x1="0" y1="1" x2="0" y2="0" id="4cb75616-6b1b-49f3-b066-7dee0f96609b"><stop offset="0%" stop-color="#e73768"></stop><stop offset="50%" stop-color="#ffffff"></stop><stop offset="100%" stop-color="#69e0f9"></stop></linearGradient><filter id="42443b3f1de60f6b6fd3b6a9844b4764" filterUnits="objectBoundingBox"><feColorMatrix type="matrix" values="0 0 0 0 0.99609375  0 0 0 0 0.99609375  0 0 0 0 0.99609375  0 0 0 1 0"></feColorMatrix></filter></defs><mask v-gra="im" id="7a50e65d-7593-4c5e-a034-68702985b35f"><g class="iconsvg-imagesvg" filter="url(#357e642a-421b-4941-80f7-3bb9a22817c4)"><g> <svg filter="url(#colors8214487437)" x="0" y="0" width="46.79999999999999" height="33.095488971706175" filtersec="colorsf759286517" class="image-svg-svg primary" style="overflow: visible;"><svg xmlns="http://www.w3.org/2000/svg" viewBox="-0.6000000000000001 -1.025 61.2 44.45"><path d="M44.5 21.7h5.7c-.2 5-2.1 9.9-5.9 13.6M15.7 6.9L1.4 21.2l14.3 14.3c7.9 7.9 20.6 7.9 28.5 0m.1-.1l14.3-14.3L44.3 6.9C36.4-1 23.7-1 15.8 6.9m-.1 0c-3.8 3.8-5.7 8.7-5.9 13.6h5.7m24.7-9.6c-5.7-5.7-14.8-5.7-20.5 0s-5.7 14.8 0 20.5 14.8 5.7 20.5 0c5.7-5.7 5.7-14.9 0-20.5z" fill="none" stroke="#282828" stroke-width="2" stroke-miterlimit="10"></path></svg></svg> <defs><filter id="colors8214487437"><feColorMatrix type="matrix" values="0 0 0 0 0.1796875  0 0 0 0 0.63671875  0 0 0 0 0.9140625  0 0 0 1 0" class="icon-fecolormatrix"></feColorMatrix></filter> <filter id="colorsf759286517"><feColorMatrix type="matrix" values="0 0 0 0 0.99609375  0 0 0 0 0.99609375  0 0 0 0 0.99609375  0 0 0 1 0" class="icon-fecolormatrix"></feColorMatrix></filter> <filter id="colorsb6185921874"><feColorMatrix type="matrix" values="0 0 0 0 0  0 0 0 0 0  0 0 0 0 0  0 0 0 1 0" class="icon-fecolormatrix"></feColorMatrix></filter></defs></g></g></mask><defs v-gra="id"><filter id="357e642a-421b-4941-80f7-3bb9a22817c4" filterUnits="userSpaceOnUse"><feColorMatrix type="matrix" values="0 0 0 0 0.99609375  0 0 0 0 0.99609375  0 0 0 0 0.99609375  0 0 0 1 0"></feColorMatrix></filter><linearGradient x1="0" y1="1" x2="0" y2="0" id="BB7toIulLGXn-VvNwHYew"><stop offset="0%" stop-color="#e73768"></stop><stop offset="50%" stop-color="#ffffff"></stop><stop offset="100%" stop-color="#69e0f9"></stop></linearGradient><filter id="42443b3f1de60f6b6fd3b6a9844b4764" filterUnits="objectBoundingBox"><feColorMatrix type="matrix" values="0 0 0 0 0.99609375  0 0 0 0 0.99609375  0 0 0 0 0.99609375  0 0 0 1 0"></feColorMatrix></filter></defs><mask v-gra="im" id="fcfbc377-4732-42db-939b-1d7c5e1e65e3"><g fill="#e73768" class="j-b-g-c iconbgsvg" filter="url(#357e642a-421b-4941-80f7-3bb9a22817c4)"><g transform="translate(0,0)"><g mask="url(#02333691-a00b-491f-aa08-fbd09444c583)"><rect fill="#e73768" fill-opacity="0" stroke-width="2" x="0" y="0" width="154" height="154" class="image-rect"></rect> <svg x="0" y="0" width="154" height="154" filtersec="colorsf1317805078" class="image-svg-container primary" style="overflow: visible;"><svg xmlns="http://www.w3.org/2000/svg" viewBox="0 0 100 100" style="overflow: visible;"><g transform="scale(1, 1) skewX(0)"><path d="M80 0c11.046 0 20 8.954 20 20v60c0 11.046-8.954 20-20 20H20C8.954 100 0 91.046 0 80V20C0 8.954 8.954 0 20 0h60zm0 3H20C10.72 3 3.175 10.437 3.003 19.677L3 20v60c0 9.28 7.437 16.825 16.677 16.997L20 97h60c9.28 0 16.825-7.437 16.997-16.677L97 80V20c0-9.28-7.437-16.825-16.677-16.997L80 3z" fill="#333" fill-rule="nonzero"></path></g></svg></svg> <defs><filter id="colors6745847721"><feColorMatrix type="matrix" values="0 0 0 0 0.1796875  0 0 0 0 0.63671875  0 0 0 0 0.9140625  0 0 0 1 0" class="icon-fecolormatrix"></feColorMatrix></filter> <filter id="colorsf1317805078"><feColorMatrix type="matrix" values="0 0 0 0 0.99609375  0 0 0 0 0.99609375  0 0 0 0 0.99609375  0 0 0 1 0" class="icon-fecolormatrix"></feColorMatrix></filter> <filter id="colorsb4499925366"><feColorMatrix type="matrix" values="0 0 0 0 0  0 0 0 0 0  0 0 0 0 0  0 0 0 1 0" class="icon-fecolormatrix"></feColorMatrix></filter></defs></g></g> <g hollow-target="textRect" transform="translate(24.16330337524414,33.55302047729492)"><g class="iconsvg-imagesvg" transform="translate(31.54241180419922,0)"><g> <svg x="0" y="0" width="46.79999999999999" height="33.095488971706175" filtersec="colorsf759286517" class="image-svg-svg primary" style="overflow: visible;"><svg xmlns="http://www.w3.org/2000/svg" viewBox="-0.6000000000000001 -1.025 61.2 44.45"><path d="M44.5 21.7h5.7c-.2 5-2.1 9.9-5.9 13.6M15.7 6.9L1.4 21.2l14.3 14.3c7.9 7.9 20.6 7.9 28.5 0m.1-.1l14.3-14.3L44.3 6.9C36.4-1 23.7-1 15.8 6.9m-.1 0c-3.8 3.8-5.7 8.7-5.9 13.6h5.7m24.7-9.6c-5.7-5.7-14.8-5.7-20.5 0s-5.7 14.8 0 20.5 14.8 5.7 20.5 0c5.7-5.7 5.7-14.9 0-20.5z" fill="none" stroke="#282828" stroke-width="2" stroke-miterlimit="10"></path></svg></svg> <defs><filter id="colors8214487437"><feColorMatrix type="matrix" values="0 0 0 0 0.1796875  0 0 0 0 0.63671875  0 0 0 0 0.9140625  0 0 0 1 0" class="icon-fecolormatrix"></feColorMatrix></filter> <filter id="colorsf759286517"><feColorMatrix type="matrix" values="0 0 0 0 0.99609375  0 0 0 0 0.99609375  0 0 0 0 0.99609375  0 0 0 1 0" class="icon-fecolormatrix"></feColorMatrix></filter> <filter id="colorsb6185921874"><feColorMatrix type="matrix" values="0 0 0 0 0  0 0 0 0 0  0 0 0 0 0  0 0 0 1 0" class="icon-fecolormatrix"></feColorMatrix></filter></defs></g></g> <g transform="translate(0,41.11726951599121)"><g fill-rule="" class="tp-name iconsvg-namesvg" fill="url(#4cb75616-6b1b-49f3-b066-7dee0f96609b)"><g transform="scale(0.8199999999999998)"><g><path d="M21.6-30.78L5.58-30.78 5.58-16.74 20.61-16.74 20.61-14.85 5.58-14.85 5.58 2.02 3.6 2.02 3.6-32.71 21.6-32.71 21.6-30.78ZM30.9-32.71L32.92-32.71 32.92 2.02 30.9 2.02 30.9-32.71ZM68.73-15.34L68.73-15.34Q68.73-10.13 66.93-6.19 65.13-2.25 61.71-0.11 58.29 2.02 53.56 2.02L53.56 2.02 43.53 2.02 43.53-32.71 53.56-32.71Q58.29-32.71 61.71-30.58 65.13-28.44 66.93-24.5 68.73-20.56 68.73-15.34ZM66.7-15.34L66.7-15.34Q66.7-19.98 65.2-23.47 63.69-26.95 60.72-28.87 57.75-30.78 53.48-30.78L53.48-30.78 45.51-30.78 45.51 0.09 53.48 0.09Q57.7 0.09 60.7-1.84 63.69-3.78 65.2-7.25 66.7-10.71 66.7-15.34ZM96.44-30.78L79.92-30.78 79.92-17.23 95.4-17.23 95.4-15.3 79.92-15.3 79.92 0.09 96.44 0.09 96.44 2.02 77.94 2.02 77.94-32.71 96.44-32.71 96.44-30.78ZM118.65 2.48L118.65 2.48Q114.6 2.48 111.47 0.18 108.34-2.11 106.59-6.19 104.83-10.26 104.83-15.34L104.83-15.34Q104.83-20.43 106.59-24.5 108.34-28.57 111.5-30.89 114.64-33.21 118.65-33.21L118.65-33.21Q122.66-33.21 125.81-30.89 128.95-28.57 130.71-24.5 132.47-20.43 132.47-15.34L132.47-15.34Q132.47-10.26 130.71-6.19 128.95-2.11 125.83 0.18 122.7 2.48 118.65 2.48ZM118.65 0.58L118.65 0.58Q122.11 0.58 124.81-1.42 127.52-3.42 129-7.04 130.49-10.66 130.49-15.34L130.49-15.34Q130.49-20.02 129-23.65 127.52-27.27 124.81-29.27 122.11-31.27 118.65-31.27L118.65-31.27Q115.19-31.27 112.51-29.27 109.83-27.27 108.34-23.65 106.86-20.02 106.86-15.34L106.86-15.34Q106.86-10.66 108.34-7.04 109.83-3.42 112.51-1.42 115.19 0.58 118.65 0.58Z" transform="translate(-3.5999999046325684, 33.209999084472656)"></path></g> </g></g> </g></g></g></mask></g></svg>