<svg t="1728647421802" class="icon" viewBox="0 0 1024 1024" version="1.1" xmlns="http://www.w3.org/2000/svg" p-id="6099" width="16" height="16"><path d="M725.333333 1024H298.666667a128 128 0 0 1-128-128V128a128 128 0 0 1 128-128h426.666666a128 128 0 0 1 128 128v768a128 128 0 0 1-128 128zM298.666667 85.333333a42.666667 42.666667 0 0 0-42.666667 42.666667v768a42.666667 42.666667 0 0 0 42.666667 42.666667h426.666666a42.666667 42.666667 0 0 0 42.666667-42.666667V128a42.666667 42.666667 0 0 0-42.666667-42.666667z" p-id="6100" fill="#dbdbdb"></path><path d="M512 853.333333m-42.666667 0a42.666667 42.666667 0 1 0 85.333334 0 42.666667 42.666667 0 1 0-85.333334 0Z" p-id="6101" fill="#dbdbdb"></path><path d="M554.666667 213.333333h-85.333334a42.666667 42.666667 0 0 1 0-85.333333h85.333334a42.666667 42.666667 0 0 1 0 85.333333z" p-id="6102" fill="#dbdbdb"></path></svg>
