<svg t="1706698103811" class="icon" viewBox="0 0 1316 1024" version="1.1" xmlns="http://www.w3.org/2000/svg" p-id="4250" width="200" height="200"><path d="M658.285714 0C415.890286 0 0 297.106286 0 512c0 214.820571 415.890286 512 658.285714 512 242.322286 0 658.285714-294.838857 658.285715-512 0-217.161143-415.963429-512-658.285715-512z m0 877.714286c-161.572571 0-512-221.769143-512-365.714286 0-144.018286 350.427429-365.714286 512-365.714286 161.572571 0 512 217.161143 512 365.714286s-350.427429 365.714286-512 365.714286z" fill="#dbdbdb" p-id="4251"></path><path d="M658.285714 292.571429a219.428571 219.428571 0 1 0 0 438.857142 219.428571 219.428571 0 0 0 0-438.857142z m0 292.571428a73.142857 73.142857 0 1 1 0-146.285714 73.142857 73.142857 0 0 1 0 146.285714z" fill="#dbdbdb" p-id="4252"></path></svg>
